<svg width="32" height="33" viewBox="0 0 32 33" fill="none" xmlns="http://www.w3.org/2000/svg">
<path fill-rule="evenodd" clip-rule="evenodd" d="M32.0001 0H0.00012207V13.5788V25.1745V32.1254H32.0001V0ZM0.00012207 25.1745H2.09366L3.37834 19.9736H6.02698L4.69473 25.1745H6.78827L9.76998 13.5788H7.67644L6.47107 18.3054H3.7907L5.05951 13.5788H0.00012207L2.68049 14.6746L0.00012207 25.1745ZM10.439 13.5788H16.8623L15.4508 15.2306H13.0876L12.247 18.518H14.4992L13.0876 20.2026H11.7871L10.5658 25.1745H8.4723L11.1685 14.511L10.439 13.5788ZM20.7836 13.5788H17.8971L18.7535 14.5928L13.488 25.1909H15.5974L16.7393 22.7867H18.9121V25.1909L20.7836 28.1511V13.5788ZM19.1659 17.6185V21.1348H17.5006L19.1659 17.6185Z" fill="#0050C9"/>
</svg>
